<svg width="35" height="35" viewBox="0 0 35 35" fill="none" xmlns="http://www.w3.org/2000/svg">
<rect width="35" height="35" rx="8" fill="#09090A"/>
<path d="M26 23.9886C26 23.1962 26.1789 22.64 26.5368 22.32C26.7446 22.1067 27.2698 22 28.1126 22C28.7821 22 29.2323 22.1067 29.4632 22.32C29.8211 22.6248 30 23.181 30 23.9886C30 24.7962 29.8211 25.3676 29.4632 25.7029C29.267 25.901 28.7417 26 27.8874 26C27.2179 26 26.7677 25.901 26.5368 25.7029C26.1789 25.3981 26 24.8267 26 23.9886Z" fill="#FB2558"/>
<path d="M16.928 15.528V12.456C16.928 11.9867 16.8107 11.6133 16.576 11.336C16.3413 11.0587 16.0107 10.92 15.584 10.92C15.2 10.92 14.9333 11.0267 14.784 11.24C14.656 11.432 14.592 11.8267 14.592 12.424C14.592 13.0427 14.5813 13.4267 14.56 13.576C14.5387 13.7253 14.4533 13.9387 14.304 14.216C13.8987 15.1547 13.1093 15.624 11.936 15.624C11.2533 15.624 10.6773 15.432 10.208 15.048C9.73867 14.664 9.504 14.1733 9.504 13.576C9.504 12.3173 10.3253 11.24 11.968 10.344C13.632 9.448 15.6373 9 17.984 9C21.4187 9 23.136 10.1627 23.136 12.488V21.768C23.136 22.4507 23.168 22.888 23.232 23.08C23.424 23.3787 23.6907 23.528 24.032 23.528C24.3307 23.528 24.5653 23.464 24.736 23.336C24.9067 23.208 25.088 22.9413 25.28 22.536C25.088 23.6027 24.576 24.456 23.744 25.096C22.912 25.736 21.8987 26.056 20.704 26.056C20.4907 26.056 20.2667 26.0347 20.032 25.992C19.7973 25.9707 19.5093 25.9173 19.168 25.832C18.7413 25.6827 18.4 25.5227 18.144 25.352C17.9093 25.1813 17.5893 24.8613 17.184 24.392L16.736 23.944L16.256 24.424C16.064 24.616 15.936 24.744 15.872 24.808C15.7227 24.9573 15.616 25.0533 15.552 25.096C14.72 25.7147 13.7067 26.024 12.512 26.024C11.2533 26.024 10.1867 25.6187 9.312 24.808C8.43733 23.9973 8 22.984 8 21.768C8 20.7013 8.39467 19.6987 9.184 18.76C9.97333 17.8213 10.9547 17.192 12.128 16.872L16.096 15.784L16.928 15.528ZM16.928 22.216V17.064C15.9893 17.384 15.328 17.832 14.944 18.408C14.5813 18.9627 14.4 19.7733 14.4 20.84C14.4 22.376 14.7947 23.144 15.584 23.144C15.968 23.144 16.416 22.8347 16.928 22.216Z" fill="#FB2558"/>
</svg>
