<svg width="67" height="66" viewBox="0 0 67 66" fill="none" xmlns="http://www.w3.org/2000/svg">
<path d="M63.637 65.8699C63.0763 65.6475 62.5897 65.314 62.1208 64.937C59.248 62.6264 56.3638 60.3304 53.4942 58.0166C53.1574 57.7459 52.8271 57.6283 52.3921 57.6283C43.3029 57.6396 34.2122 57.6428 25.1231 57.6347C21.0531 57.6315 17.8177 55.0954 16.8944 51.2106C16.5673 49.8378 16.6302 48.4361 16.722 47.0504C16.7913 45.9998 17.7854 45.2458 18.8311 45.2925C19.8769 45.3392 20.7244 46.1642 20.784 47.234C20.8178 47.8544 20.7937 48.4763 20.7969 49.0983C20.8114 51.7891 22.5354 53.5163 25.2327 53.5163C34.5151 53.5212 43.7976 53.526 53.0817 53.5051C54.0388 53.5035 54.8154 53.779 55.5501 54.38C57.4885 55.9703 59.4607 57.5203 61.4199 59.0832C61.565 59.1976 61.6826 59.3604 61.9645 59.3958C61.9645 59.1783 61.9645 58.9737 61.9645 58.7707C61.9645 47.5579 61.9662 36.3468 61.9645 25.134C61.9645 22.4142 60.4902 20.811 57.7898 20.579C56.5797 20.4759 55.7354 19.5575 55.7983 18.4102C55.8611 17.2695 56.7892 16.4558 58.0154 16.4703C61.8759 16.5138 65.3047 19.4463 65.9492 23.2585C65.9734 23.4019 65.9395 23.5647 66.0829 23.6694C66.0829 37.2201 66.0829 50.7708 66.0829 64.3231C65.7671 65.0352 65.2467 65.546 64.5393 65.8666C64.238 65.8699 63.9367 65.8699 63.637 65.8699Z" fill="#FB2558"/>
<path d="M0.212953 28.5177C0.212953 21.8084 0.203285 15.0991 0.216175 8.39144C0.224232 4.34718 2.80063 1.10371 6.6886 0.201407C7.33794 0.0515603 7.99856 0 8.66562 0C20.8612 0.00322252 33.0585 -0.00322271 45.2541 0.00483358C50.1491 0.0080561 53.7245 3.59472 53.7293 8.49617C53.7374 16.5557 53.7358 24.6152 53.7293 32.6747C53.7245 37.6052 50.1443 41.1677 45.1929 41.1693C35.4609 41.1741 25.7305 41.1725 15.9985 41.1628C15.5683 41.1628 15.2379 41.2643 14.8996 41.5479C11.3532 44.5239 7.79393 47.4838 4.23627 50.4437C3.92529 50.7031 3.60788 50.9673 3.25823 51.1688C2.07396 51.8455 0.665717 51.2413 0.29835 49.9265C0.204897 49.5897 0.212953 49.2481 0.212953 48.9049C0.212953 42.107 0.212953 35.3124 0.212953 28.5177ZM4.32972 44.8687C4.63103 44.8397 4.75509 44.648 4.90977 44.5191C7.56352 42.3133 10.2221 40.1139 12.8597 37.8888C13.5526 37.3039 14.297 37.0428 15.2041 37.0445C25.1295 37.0606 35.0548 37.0541 44.9802 37.0541C47.9417 37.0541 49.6125 35.3913 49.6125 32.4459C49.6142 24.5572 49.6125 16.6685 49.6125 8.77975C49.6125 5.77797 47.9594 4.1216 44.9657 4.1216C32.9602 4.1216 20.9563 4.1216 8.95081 4.1216C5.99576 4.1216 4.32811 5.78764 4.32811 8.73947C4.32811 20.5516 4.32811 32.3637 4.32811 44.1743C4.32972 44.3982 4.32972 44.6238 4.32972 44.8687Z" fill="#FB2558"/>
<path d="M26.9632 16.4671C22.8915 16.4671 18.8183 16.4752 14.7466 16.4623C13.1966 16.4575 12.1928 15.104 12.6955 13.7248C12.9952 12.9014 13.6123 12.4567 14.4759 12.3616C14.6886 12.3375 14.9045 12.3504 15.1188 12.3504C23.0269 12.3504 30.9366 12.3487 38.8446 12.352C39.1443 12.352 39.4504 12.3423 39.7405 12.4019C40.7604 12.613 41.4484 13.5427 41.3711 14.561C41.2905 15.6277 40.4333 16.4494 39.3087 16.4575C36.5437 16.4768 33.7788 16.4655 31.0139 16.4655C29.6637 16.4687 28.3134 16.4687 26.9632 16.4671Z" fill="#FB2558"/>
<path d="M22.853 20.5853C25.5744 20.5853 28.2958 20.5708 31.0173 20.5918C32.5721 20.6031 33.5727 22.0677 32.9766 23.4357C32.606 24.2864 31.9147 24.6973 30.9899 24.6989C28.9967 24.7021 27.0036 24.7005 25.0105 24.7005C21.5817 24.7005 18.153 24.7118 14.7242 24.6957C13.1613 24.6876 12.143 23.252 12.7198 21.8792C13.0904 20.9978 13.7993 20.5837 14.7516 20.5853C17.4521 20.5853 20.1525 20.5853 22.853 20.5853Z" fill="#FB2558"/>
</svg>
