<svg width="18" height="30" viewBox="0 0 18 30" fill="none" xmlns="http://www.w3.org/2000/svg">
<path d="M17.5666 0.817881C17.5666 0.603501 17.4842 0.397901 17.3376 0.246311C17.191 0.0947214 16.9921 0.00955892 16.7847 0.00955892H12.8754C10.9069 -0.0918194 8.9796 0.616433 7.51459 1.97957C6.04959 3.3427 5.16599 5.2499 5.05687 7.28446V11.6494H1.14758C0.940219 11.6494 0.74135 11.7346 0.594724 11.8861C0.448097 12.0377 0.365723 12.2433 0.365723 12.4577V16.661C0.365723 16.8754 0.448097 17.081 0.594724 17.2326C0.74135 17.3842 0.940219 17.4693 1.14758 17.4693H5.05687V28.3008C5.05687 28.5152 5.13924 28.7208 5.28587 28.8724C5.43249 29.024 5.63136 29.1092 5.83873 29.1092H10.5299C10.7372 29.1092 10.9361 29.024 11.0827 28.8724C11.2294 28.7208 11.3117 28.5152 11.3117 28.3008V17.4693H15.4087C15.5825 17.4719 15.7523 17.4145 15.891 17.3062C16.0298 17.1978 16.1297 17.0448 16.1749 16.8712L17.3008 12.6679C17.3319 12.5484 17.336 12.4232 17.313 12.3019C17.2899 12.1805 17.2402 12.0662 17.1677 11.9678C17.0952 11.8694 17.0018 11.7896 16.8948 11.7344C16.7877 11.6792 16.6698 11.6501 16.5502 11.6494H11.3117V7.28446C11.3506 6.8843 11.5324 6.5135 11.8215 6.24446C12.1107 5.97542 12.4864 5.82746 12.8754 5.82948H16.7847C16.9921 5.82948 17.191 5.74432 17.3376 5.59273C17.4842 5.44114 17.5666 5.23554 17.5666 5.02116V0.817881Z" fill="white"/>
</svg>
