<svg width="65" height="55" viewBox="0 0 65 55" fill="none" xmlns="http://www.w3.org/2000/svg">
<path d="M0.00348032 28.5177C0.00348032 21.8084 -0.00618723 15.0991 0.00670284 8.39144C0.0147591 4.34718 2.59116 1.10371 6.47913 0.201407C7.12847 0.0515603 7.78908 0 8.45615 0C20.6518 0.00322252 32.849 -0.00322271 45.0446 0.00483358C49.9396 0.0080561 53.515 3.59472 53.5198 8.49617C53.5279 16.5557 53.5263 24.6152 53.5198 32.6747C53.515 37.6052 49.9348 41.1677 44.9834 41.1693C35.2514 41.1741 25.521 41.1725 15.789 41.1628C15.3588 41.1628 15.0285 41.2643 14.6901 41.5479C11.1437 44.5239 7.58445 47.4838 4.02679 50.4437C3.71582 50.7031 3.3984 50.9673 3.04876 51.1688C1.86448 51.8455 0.456244 51.2413 0.0888771 49.9265C-0.00457597 49.5897 0.00348032 49.2481 0.00348032 48.9049C0.00348032 42.107 0.00348032 35.3124 0.00348032 28.5177ZM4.12025 44.8687C4.42155 44.8397 4.54562 44.648 4.7003 44.5191C7.35404 42.3133 10.0126 40.1139 12.6503 37.8888C13.3431 37.3039 14.0875 37.0428 14.9946 37.0445C24.92 37.0606 34.8453 37.0541 44.7707 37.0541C47.7322 37.0541 49.4031 35.3913 49.4031 32.4459C49.4047 24.5572 49.4031 16.6685 49.4031 8.77975C49.4031 5.77797 47.7499 4.1216 44.7562 4.1216C32.7507 4.1216 20.7468 4.1216 8.74134 4.1216C5.78629 4.1216 4.11864 5.78764 4.11864 8.73947C4.11864 20.5516 4.11864 32.3637 4.11864 44.1743C4.12025 44.3982 4.12025 44.6238 4.12025 44.8687Z" fill="#FB2558"/>
<path d="M41.2905 10L46.3421 25.5471H62.6893L49.4641 35.1558L54.5157 50.7029L41.2905 41.0942L28.0654 50.7029L33.1169 35.1558L19.8918 25.5471H36.239L41.2905 10Z" fill="#09090A" stroke="#FB2558" stroke-width="3" stroke-linejoin="round"/>
</svg>
