<svg width="30" height="30" viewBox="0 0 30 30" fill="none" xmlns="http://www.w3.org/2000/svg">
<path fill-rule="evenodd" clip-rule="evenodd" d="M8.61459 0.0873274C10.1671 0.0161688 10.6619 0 14.6151 0C18.5691 0 19.0631 0.0169759 20.6148 0.0873274C22.1648 0.157679 23.2234 0.4043 24.1492 0.764115C25.1202 1.12971 25.9998 1.70254 26.7269 2.44275C27.4672 3.16972 28.0401 4.04943 28.4056 5.02052C28.7653 5.94635 29.0112 7.0048 29.0824 8.55404C29.1536 10.1065 29.1697 10.6014 29.1697 14.5546C29.1697 18.5077 29.1528 19.0026 29.0824 20.5552C29.012 22.1043 28.7653 23.1628 28.4056 24.0886C28.0337 25.0453 27.5355 25.8578 26.7269 26.6664C26 27.4067 25.1202 27.9796 24.1492 28.345C23.2234 28.7048 22.1648 28.9506 20.6157 29.0218C19.0631 29.093 18.5683 29.1092 14.6151 29.1092C10.6619 29.1092 10.1671 29.0922 8.61459 29.0218C7.06535 28.9514 6.0069 28.7048 5.08107 28.345C4.1245 27.9731 3.31188 27.4749 2.50329 26.6664C1.76296 25.9394 1.19009 25.0597 0.824662 24.0886C0.464847 23.1628 0.219033 22.1043 0.147874 20.5552C0.0767157 19.0026 0.0605469 18.5085 0.0605469 14.5546C0.0605469 10.6006 0.0775228 10.1065 0.147874 8.55486C0.218226 7.0048 0.464847 5.94635 0.824662 5.02052C1.19026 4.04949 1.76309 3.16983 2.50329 2.44275C3.23026 1.70241 4.10996 1.12954 5.08107 0.764115C6.0069 0.4043 7.06535 0.158486 8.61459 0.0873274ZM20.4968 2.70715C18.962 2.63761 18.5012 2.62225 14.6151 2.62225C10.7291 2.62225 10.2682 2.63761 8.73346 2.70715C7.31439 2.77184 6.5438 3.00875 6.03115 3.20848C5.35194 3.47207 4.86679 3.78742 4.35738 4.29683C3.84879 4.80624 3.53262 5.2914 3.26902 5.97061C3.0693 6.48326 2.83239 7.25384 2.7677 8.67291C2.69815 10.2076 2.68279 10.6685 2.68279 14.5546C2.68279 18.4406 2.69815 18.9015 2.7677 20.4362C2.83239 21.8553 3.0693 22.6259 3.26902 23.1386C3.50219 23.7708 3.8741 24.3427 4.35738 24.8124C4.82696 25.2956 5.39891 25.6675 6.03115 25.9007C6.5438 26.1005 7.31439 26.3373 8.73346 26.402C10.2682 26.4716 10.7282 26.4869 14.6151 26.4869C18.502 26.4869 18.962 26.4716 20.4968 26.402C21.9158 26.3373 22.6864 26.1005 23.1992 25.9007C23.8783 25.6371 24.3635 25.3218 24.8729 24.8124C25.3561 24.3428 25.7281 23.7708 25.9612 23.1386C26.161 22.6259 26.3978 21.8553 26.4626 20.4362C26.5321 18.9015 26.5475 18.4406 26.5475 14.5546C26.5475 10.6685 26.5321 10.2076 26.4626 8.67291C26.3978 7.25384 26.161 6.48326 25.9612 5.97061C25.6976 5.2914 25.3823 4.80624 24.8729 4.29683C24.3635 3.78824 23.8783 3.47207 23.1992 3.20848C22.6864 3.00875 21.9158 2.77184 20.4968 2.70715ZM12.7568 19.0412C13.346 19.2853 13.9774 19.4109 14.6151 19.4109C15.9032 19.4109 17.1384 18.8993 18.0491 17.9885C18.9599 17.0778 19.4716 15.8425 19.4716 14.5546C19.4716 13.2666 18.9599 12.0313 18.0491 11.1206C17.1384 10.2099 15.9032 9.69819 14.6151 9.69819C13.9774 9.69819 13.346 9.82381 12.7568 10.0679C12.1674 10.3119 11.6321 10.6696 11.1812 11.1206C10.7302 11.5716 10.3725 12.1069 10.1285 12.6961C9.8844 13.2853 9.75879 13.9168 9.75879 14.5546C9.75879 15.1923 9.8844 15.8239 10.1285 16.4131C10.3725 17.0023 10.7302 17.5376 11.1812 17.9885C11.6321 18.4395 12.1674 18.7972 12.7568 19.0412ZM9.32526 9.26466C10.7282 7.86169 12.6311 7.07351 14.6151 7.07351C16.5993 7.07351 18.5021 7.86169 19.9051 9.26466C21.308 10.6676 22.0962 12.5705 22.0962 14.5546C22.0962 16.5386 21.308 18.4414 19.9051 19.8445C18.5021 21.2474 16.5993 22.0356 14.6151 22.0356C12.6311 22.0356 10.7282 21.2474 9.32526 19.8445C7.92229 18.4414 7.13411 16.5386 7.13411 14.5546C7.13411 12.5705 7.92229 10.6676 9.32526 9.26466ZM23.755 8.18811C24.0866 7.85647 24.2729 7.40668 24.2729 6.93768C24.2729 6.46866 24.0866 6.01887 23.755 5.68724C23.4233 5.35561 22.9736 5.1693 22.5045 5.1693C22.0356 5.1693 21.5857 5.35561 21.2541 5.68724C20.9224 6.01887 20.7361 6.46866 20.7361 6.93768C20.7361 7.40668 20.9224 7.85647 21.2541 8.18811C21.5857 8.51975 22.0356 8.70606 22.5045 8.70606C22.9736 8.70606 23.4233 8.51975 23.755 8.18811Z" fill="white"/>
</svg>
